HIERARCHY
ROOT Hips
{
	OFFSET 0.000000 88.474243 0.000000
	CHANNELS 6 Xposition Yposition Zposition Zrotation Yrotation Xrotation 
	JOINT Hips_Spine
	{
		OFFSET 0.000000 0.000000 0.000000
		CHANNELS 3 Zrotation Yrotation Xrotation
		JOINT Spine
		{
			OFFSET 0.005100 8.711998 -0.691000
			CHANNELS 3 Zrotation Yrotation Xrotation
			JOINT Spine1
			{
				OFFSET -0.009200 8.660301 -1.275000
				CHANNELS 3 Zrotation Yrotation Xrotation
				JOINT Spine2
				{
					OFFSET 0.006300 9.852501 -1.857000
					CHANNELS 3 Zrotation Yrotation Xrotation
					JOINT Spine2_Neck
					{
						OFFSET 0.000000 0.000000 0.000000
						CHANNELS 3 Zrotation Yrotation Xrotation
						JOINT Neck
						{
							OFFSET 0.016300 11.420799 -0.263300
							CHANNELS 3 Zrotation Yrotation Xrotation
							End Site #name: Head
							{
								OFFSET -0.019200 9.262405 2.362500
							}
						}
					}
					JOINT Spine2_LeftShoulder
					{
						OFFSET 0.000000 0.000000 0.000000
						CHANNELS 3 Zrotation Yrotation Xrotation
						JOINT LeftShoulder
						{
							OFFSET 5.616900 6.732201 -0.345700
							CHANNELS 3 Zrotation Yrotation Xrotation
							JOINT LeftArm
							{
								OFFSET 10.664888 -0.183372 -2.440700
								CHANNELS 3 Zrotation Yrotation Xrotation
								JOINT LeftForeArm
								{
									OFFSET 27.459126 0.000000 0.000000
									CHANNELS 3 Zrotation Yrotation Xrotation
									End Site #name: LeftHand
									{
										OFFSET 21.306858 0.000000 0.000000
									}
								}
							}
						}
					}
					JOINT Spine2_RightShoulder
					{
						OFFSET 0.000000 0.000000 0.000000
						CHANNELS 3 Zrotation Yrotation Xrotation
						JOINT RightShoulder
						{
							OFFSET -5.580300 6.737503 -0.344400
							CHANNELS 3 Zrotation Yrotation Xrotation
							JOINT RightArm
							{
								OFFSET -10.679335 -0.188484 -2.383900
								CHANNELS 3 Zrotation Yrotation Xrotation
								JOINT RightForeArm
								{
									OFFSET -27.503529 0.000000 0.000000
									CHANNELS 3 Zrotation Yrotation Xrotation
									End Site #name: RightHand
									{
										OFFSET -21.306808 0.000000 0.000000
									}
								}
							}
						}
					}
				}
			}
		}
	}
	JOINT Hips_LeftUpLeg
	{
		OFFSET 0.000000 0.000000 0.000000
		CHANNELS 3 Zrotation Yrotation Xrotation
		JOINT LeftUpLeg
		{
			OFFSET 6.857700 -6.739601 0.312100
			CHANNELS 3 Zrotation Yrotation Xrotation
			JOINT LeftLeg
			{
				OFFSET -0.367590 -34.731552 -4.572400
				CHANNELS 3 Zrotation Yrotation Xrotation
				End Site #name: LeftFoot
				{
					OFFSET 0.367590 -34.656704 -6.067400
				}
			}
		}
	}
	JOINT Hips_RightUpLeg
	{
		OFFSET 0.000000 0.000000 0.000000
		CHANNELS 3 Zrotation Yrotation Xrotation
		JOINT RightUpLeg
		{
			OFFSET -6.876100 -6.733299 0.301000
			CHANNELS 3 Zrotation Yrotation Xrotation
			JOINT RightLeg
			{
				OFFSET 0.347353 -34.795158 -4.515900
				CHANNELS 3 Zrotation Yrotation Xrotation
				End Site #name: RightFoot
				{
					OFFSET -0.347353 -34.589367 -6.070300
				}
			}
		}
	}
}
MOTION
Frames: 15
Frame Time: 0.041667
0.179961 0.045676 -0.019058 1.273086 15.527485 -6.241363 -0.000000 0.000000 0.000000 -0.165500 -2.029943 -0.109536 0.281727 -1.522461 -1.657958 0.000000 0.000000 0.000000 0.089563 -0.924023 -1.777029 4.155196 0.597034 -5.355564 0.498485 -1.723946 -2.615249 -16.304898 -6.644055 2.115089 -46.538034 -1.043084 6.981773 -0.469892 -32.860320 6.232943 0.422070 -1.315827 -0.973588 12.493260 10.704828 4.602389 57.646734 -6.726194 -5.036906 -0.622702 52.217939 0.640470 0.000000 0.000000 0.000000 -10.774085 19.064983 -4.895399 -1.738121 -2.546106 22.859221 0.000000 0.000000 0.000000 -5.428747 16.937830 -9.111300 7.936329 1.531981 -2.927687 
0.747371 -0.027607 0.128940 3.192815 14.795812 -6.783905 -0.000000 0.000000 0.000000 -2.275531 -2.631799 -0.616186 0.547567 -1.622020 -1.754322 0.000000 0.000000 0.000000 0.202366 -0.848379 -2.861401 4.426115 -1.447080 -2.955168 -0.128897 -1.610232 -3.747920 -21.512529 -3.452831 0.560332 -44.215421 -0.495993 -4.915149 -0.802766 -26.353277 3.968447 0.078728 -1.585459 -1.089367 12.737272 8.072293 1.781266 60.331588 -1.671687 -6.982706 -0.593368 53.671660 -0.890446 0.000000 0.000000 -0.000000 -13.891597 16.641867 -2.038593 -0.760851 1.095603 20.751213 0.000000 0.000000 0.000000 -9.373122 19.887769 -9.699427 8.344675 1.112285 -1.099834 
1.069233 -0.064853 0.155687 4.714689 12.569022 -7.074676 -0.000000 0.000000 -0.000000 -3.754630 -3.895327 -0.416726 0.512709 -1.457739 -1.785685 0.000000 0.000000 0.000000 0.700184 -1.342332 -2.790464 3.631499 -2.739139 -3.020262 -0.437775 -1.594041 -3.323100 -24.802692 -2.910592 2.079140 -44.584608 5.335745 -8.631864 -1.393503 -27.008491 4.114143 0.141845 -1.602523 -1.006035 11.889204 7.201712 1.955219 59.538805 0.220265 -5.352753 -0.188560 48.208903 -0.667990 0.000000 0.000000 -0.000000 -15.853875 16.292526 -0.048181 -1.217494 1.524184 19.040683 0.000000 0.000000 0.000000 -11.728102 21.546695 -13.151467 7.706318 -0.440239 5.511211 
1.341949 -0.093648 0.117570 5.537854 10.578471 -7.035610 -0.000000 0.000000 -0.000000 -5.278699 -3.726471 0.547181 0.507086 -1.429433 -1.609051 0.000000 0.000000 0.000000 0.890496 -1.509222 -2.658856 3.332060 -4.369436 -2.111647 -0.386749 -1.604188 -3.083985 -25.942690 -2.622383 3.385178 -43.178196 6.460293 -7.941726 -1.020107 -26.143785 6.426528 0.232862 -1.618650 -0.892388 10.500831 7.301342 1.893393 59.012164 3.177090 -3.909695 -0.035582 48.613391 -0.569264 0.000000 0.000000 -0.000000 -16.921212 16.533156 0.562338 -1.638995 1.998406 18.279676 0.000000 0.000000 0.000000 -13.604564 21.289692 -16.759444 7.164074 -0.780332 13.246509 
1.657326 -0.107477 0.064489 5.908177 9.824653 -6.757305 -0.000000 0.000000 -0.000000 -6.220145 -3.183897 0.895122 0.411741 -1.396012 -1.529704 0.000000 0.000000 0.000000 0.681754 -1.617300 -2.715694 3.245578 -5.501041 -1.616321 -0.427662 -1.751245 -3.005804 -27.397812 -2.179588 4.547471 -40.329629 6.492703 -7.965096 -0.416394 -22.545096 8.451855 0.201272 -1.644878 -0.874981 8.746415 7.519197 1.735597 59.727795 4.432106 -3.692009 0.016125 50.473026 -0.698827 0.000000 0.000000 -0.000000 -17.571339 16.733368 0.818579 -1.975671 2.158354 17.839070 0.000000 0.000000 0.000000 -15.054343 20.430402 -19.168686 6.982304 -0.392792 18.884548 
2.006100 -0.108616 0.008297 6.020968 9.458431 -6.573345 -0.000000 0.000000 -0.000000 -6.485604 -2.843295 0.364779 0.231575 -1.365042 -1.558472 0.000000 0.000000 0.000000 0.324338 -1.689423 -2.880816 3.126830 -6.017305 -1.452422 -0.601018 -1.835596 -3.102777 -29.111291 -1.501772 5.219025 -38.092562 6.241501 -7.340271 0.102632 -18.279906 9.816755 0.074798 -1.714416 -0.996802 7.141850 7.627107 1.564172 61.264938 4.016111 -4.626004 0.165801 50.547206 -0.730331 0.000000 0.000000 -0.000000 -17.989338 16.905448 0.810961 -1.923286 2.398355 17.603084 0.000000 0.000000 0.000000 -15.904772 19.448648 -20.121632 6.924042 0.301358 22.154024 
2.367869 -0.100764 -0.046121 5.935551 9.666314 -6.482415 -0.000000 0.000000 -0.000000 -6.225507 -2.534585 -0.327735 -0.018436 -1.310903 -1.725550 0.000000 0.000000 0.000000 -0.013150 -1.691407 -3.024139 2.988005 -6.039992 -1.297151 -0.865061 -1.837716 -3.294539 -30.872693 -0.612133 5.450046 -36.397723 6.296938 -6.732871 0.448995 -13.917889 10.399246 -0.144481 -1.728809 -1.154142 6.147617 7.658688 1.472059 63.064224 2.959225 -6.590591 0.344682 49.683549 -0.707666 0.000000 0.000000 -0.000000 -18.188440 17.044463 0.504423 -1.736562 2.639069 17.730860 0.000000 0.000000 0.000000 -16.444373 18.444873 -20.162810 6.804446 0.759376 23.693439 
2.720025 -0.082771 -0.091680 5.724463 10.519645 -6.367569 -0.000000 0.000000 -0.000000 -6.028662 -2.213433 -1.001564 -0.244824 -1.207758 -1.941276 0.000000 0.000000 0.000000 -0.254881 -1.663629 -3.166361 2.901315 -5.875394 -1.188130 -1.123275 -1.793832 -3.513901 -32.293053 0.170888 5.359488 -35.217889 6.378449 -6.405094 0.731317 -10.792527 10.218881 -0.424677 -1.665598 -1.284601 5.593371 7.665572 1.455869 65.364458 2.406757 -7.770096 0.535315 48.149105 -0.671386 0.000000 0.000000 -0.000000 -18.172353 17.138987 0.012396 -1.600569 2.867529 18.062081 0.000000 0.000000 0.000000 -16.767658 17.248859 -19.713326 6.421939 0.773025 24.078336 
3.036378 -0.052904 -0.123685 5.398275 11.889310 -6.212919 -0.000000 0.000000 -0.000000 -6.156328 -1.834608 -1.360144 -0.404520 -1.075692 -2.129263 0.000000 0.000000 0.000000 -0.439934 -1.601985 -3.301143 2.822495 -5.581435 -1.098878 -1.312446 -1.713751 -3.735575 -33.161100 0.672563 5.228235 -34.643395 6.331273 -6.230000 0.768681 -9.467492 9.822507 -0.639314 -1.573548 -1.397943 5.261635 7.540719 1.455179 67.483307 1.966942 -8.101885 0.687730 46.025002 -0.603031 0.000000 0.000000 -0.000000 -18.011728 17.154440 -0.492876 -1.381622 3.114558 18.196800 0.000000 0.000000 0.000000 -16.856604 15.785551 -18.986765 5.860213 0.492258 23.767290 
3.312099 -0.012004 -0.144576 4.977566 13.378292 -6.048433 -0.000000 0.000000 -0.000000 -6.540612 -1.384025 -1.430874 -0.535744 -0.941989 -2.330879 0.000000 0.000000 0.000000 -0.626175 -1.524301 -3.437723 2.834540 -5.182411 -1.102316 -1.452680 -1.630238 -3.945402 -33.488547 0.994315 5.149247 -34.636071 6.329510 -6.273965 0.720494 -9.235364 9.445934 -0.898152 -1.434346 -1.485473 4.836514 7.344457 1.426433 69.184814 2.097857 -7.620009 0.808519 43.951176 -0.552779 0.000000 0.000000 -0.000000 -17.709653 17.098131 -0.953488 -1.137036 3.371747 18.192551 0.000000 0.000000 0.000000 -16.707501 14.039233 -18.059012 5.319260 0.146576 22.825892 
3.543800 0.040999 -0.152478 4.477375 14.863832 -5.908438 -0.000000 0.000000 -0.000000 -7.088136 -0.943573 -1.293172 -0.662820 -0.815406 -2.524170 0.000000 0.000000 0.000000 -0.824564 -1.437743 -3.556549 2.954174 -4.706942 -1.216499 -1.582726 -1.543586 -4.139757 -33.391870 1.205456 5.088820 -34.953965 6.254720 -6.439369 0.647888 -9.740696 9.179047 -1.153563 -1.289476 -1.543735 4.503292 7.166823 1.392693 70.266236 2.616610 -6.847210 0.883919 42.348211 -0.513202 0.000000 0.000000 -0.000000 -17.337090 17.025181 -1.395721 -0.880613 3.614199 18.115543 0.000000 0.000000 0.000000 -16.438963 12.005078 -17.035082 4.776966 -0.227051 21.448145 
3.728011 0.102855 -0.148451 4.001274 16.117173 -5.751097 -0.000000 0.000000 -0.000000 -7.719436 -0.641365 -1.044271 -0.797218 -0.699201 -2.702413 0.000000 0.000000 0.000000 -1.038300 -1.352334 -3.666938 3.127541 -4.249668 -1.418047 -1.716444 -1.451956 -4.309741 -33.022594 1.348492 5.067082 -35.473738 6.039503 -6.521786 0.604857 -10.429528 9.016624 -1.413178 -1.145919 -1.593529 4.345623 6.952109 1.347069 70.649168 3.006484 -6.354784 0.906645 41.414768 -0.497369 0.000000 0.000000 -0.000000 -16.973763 16.946741 -1.782147 -0.695428 3.836930 17.968220 0.000000 0.000000 0.000000 -16.113391 9.951856 -16.008143 4.296181 -0.567140 19.816561 
3.860030 0.169574 -0.137193 3.613448 16.939783 -5.573045 -0.000000 0.000000 -0.000000 -8.241214 -0.391171 -0.790751 -0.916648 -0.597620 -2.865995 0.000000 0.000000 0.000000 -1.238658 -1.278785 -3.754745 3.336614 -3.820048 -1.622463 -1.846109 -1.357910 -4.442912 -32.509798 1.403150 5.065194 -36.084411 5.598034 -6.332641 0.578993 -11.009965 8.921243 -1.640119 -1.006966 -1.628860 4.359204 6.764301 1.297650 70.418741 3.172339 -6.118204 0.894110 41.051581 -0.505890 0.000000 0.000000 -0.000000 -16.629130 16.860533 -2.066293 -0.624968 4.057130 17.720204 0.000000 0.000000 0.000000 -15.749474 8.086738 -15.130849 3.844827 -1.020457 18.233339 
3.942558 0.235835 -0.125579 3.322252 17.327762 -5.402783 -0.000000 0.000000 -0.000000 -8.623590 -0.230479 -0.586889 -1.013437 -0.519463 -3.035892 0.000000 0.000000 0.000000 -1.393910 -1.224122 -3.834102 3.555594 -3.460455 -1.834961 -1.949827 -1.283933 -4.565250 -31.845990 1.368920 5.088455 -36.732171 4.932617 -5.777376 0.571006 -11.378419 8.828541 -1.816769 -0.898050 -1.665045 4.476880 6.608600 1.252839 69.807194 3.183603 -6.195885 0.862817 41.117042 -0.524415 0.000000 0.000000 -0.000000 -16.324938 16.832747 -2.249165 -0.592061 4.313285 17.397029 0.000000 0.000000 0.000000 -15.402369 6.554037 -14.426931 3.436985 -1.518538 16.659352 
3.976854 0.299966 -0.114757 3.132036 17.332270 -5.242221 -0.000000 0.000000 -0.000000 -8.891818 -0.169028 -0.433625 -1.034007 -0.492275 -3.212998 0.000000 0.000000 0.000000 -1.481234 -1.192380 -3.923311 3.766716 -3.152350 -2.028276 -2.013548 -1.253143 -4.691563 -31.141678 1.288110 5.189779 -37.269431 4.299312 -5.100274 0.565288 -11.563288 8.745743 -1.919269 -0.834068 -1.722665 4.605799 6.459465 1.212127 69.079455 3.056359 -6.416000 0.823745 41.492750 -0.547054 0.000000 0.000000 -0.000000 -16.064217 16.915941 -2.360683 -0.635745 4.462154 17.103079 0.000000 0.000000 0.000000 -15.107191 5.450062 -13.830588 3.097321 -2.114803 15.106980 
